<svg width="367" height="477" viewBox="0 0 367 477" fill="none" xmlns="http://www.w3.org/2000/svg">
<path d="M134.72 319.7C136.871 319.7 140.232 319.834 144.803 320.103C149.643 320.372 154.214 320.641 158.517 320.91C162.819 321.179 167.793 321.448 173.44 321.717C179.356 321.717 184.868 321.717 189.977 321.717C190.783 321.717 191.456 321.717 191.993 321.717C197.102 338.119 201.001 358.554 203.69 383.023C206.648 407.223 208.933 428.062 210.547 445.54C212.16 462.749 214.446 473.236 217.403 477H366.233C360.587 469.74 355.343 458.85 350.503 444.33C345.932 429.81 341.764 415.156 338 400.367C334.504 385.309 330.337 370.52 325.497 356C320.657 341.211 313.8 328.439 304.927 317.683C296.322 306.928 285.97 300.071 273.87 297.113C296.188 282.862 314.069 263.637 327.513 239.437C341.227 215.237 348.083 187.541 348.083 156.35C348.083 103.648 333.698 64.5245 304.927 38.98C276.424 13.4356 233.133 0.663348 175.053 0.663348C158.382 0.663348 137.274 1.33557 111.73 2.68001C86.1856 3.75556 66.96 4.29334 54.0533 4.29334H0.813333V477H134.72V319.7ZM134.72 244.68V78.5067H142.383C165.239 78.5067 182.717 83.2122 194.817 92.6234C207.186 101.766 213.37 118.033 213.37 141.427V173.29C213.37 184.046 212.563 193.457 210.95 201.523C209.337 209.59 206.917 216.178 203.69 221.287C200.463 226.396 196.968 230.563 193.203 233.79C189.708 237.017 185.137 239.437 179.49 241.05C174.112 242.394 169.138 243.336 164.567 243.873C159.996 244.411 154.349 244.68 147.627 244.68H134.72Z" fill="black"/>
</svg>
