<?xml version="1.0" encoding="utf-8"?>
<!-- Generator: Adobe Illustrator 25.2.0, SVG Export Plug-In . SVG Version: 6.00 Build 0)  -->
<svg version="1.1" id="레이어_1" xmlns="http://www.w3.org/2000/svg" xmlns:xlink="http://www.w3.org/1999/xlink" x="0px"
	 y="0px" viewBox="0 0 20 20" style="enable-background:new 0 0 20 20;" xml:space="preserve">
<g>
	<path d="M0.5,6c0-0.1,0-0.3,0.1-0.4c0.2-0.2,0.5-0.2,0.7,0l8.6,8.6l8.6-8.6c0.2-0.2,0.5-0.2,0.7,0s0.2,0.5,0,0.7l-9,9
		c-0.2,0.2-0.5,0.2-0.7,0l-9-9C0.5,6.3,0.5,6.1,0.5,6L0.5,6z"/>
	<path d="M10,15.7c-0.2,0-0.4-0.1-0.5-0.2l-9-9C0.3,6.4,0.3,6.2,0.3,6c0,0,0,0,0,0c0-0.2,0.1-0.4,0.2-0.5c0.3-0.3,0.8-0.3,1.1,0
		l8.5,8.5l8.5-8.5c0.1-0.1,0.3-0.2,0.5-0.2c0,0,0,0,0,0c0.2,0,0.4,0.1,0.5,0.2c0.1,0.1,0.2,0.3,0.2,0.5c0,0.2-0.1,0.4-0.2,0.5l-9,9
		C10.4,15.7,10.2,15.7,10,15.7z"/>
</g>
</svg>
