<?xml version="1.0" encoding="utf-8"?>
<!-- Generator: Adobe Illustrator 26.0.3, SVG Export Plug-In . SVG Version: 6.00 Build 0)  -->
<svg version="1.1" id="레이어_1" xmlns="http://www.w3.org/2000/svg" xmlns:xlink="http://www.w3.org/1999/xlink" x="348px"
	 y="477px" viewBox="0 0 348 477" style="enable-background:new 0 0 348 477;" xml:space="preserve">
<path d="M134.3,477V376.8c0.3,0,1.9,0.1,4.8,0.4c2.9,0.3,5,0.4,6,0.4c1.1,0,3.1,0.1,6,0.4c3.2,0,5.6,0.1,7.2,0.4
	c1.9,0,4.3,0.1,7.2,0.4c3.2,0,5.9,0.1,8,0.4c2.4,0,5,0,7.6,0c2.9,0,5.8,0,8.4,0c20.9,0,40.7-4.7,59.4-14.1
	c18.7-9.5,35.5-22.9,50.2-40.4s26.4-39.8,34.9-67c8.8-27.5,13.3-57.9,13.3-91.3c0-55.5-13.4-97.1-40.2-124.8
	C280.6,13.8,241.3,0,189.3,0c-18.5,0-42,0.7-70.7,2C90,3.1,68.6,3.7,54.4,3.7h-53V477H134.3z M215.8,148.7v59.7
	c0,26.9-5.9,47.5-17.7,61.8c-11.5,14.2-27.8,21.4-49,21.4h-14.9V81.6h19.3c20.1,0,35.5,6.2,46.2,18.6
	C210.5,112.5,215.8,128.7,215.8,148.7z"/>
</svg>
