<?xml version="1.0" standalone="no"?>
<!DOCTYPE svg PUBLIC "-//W3C//DTD SVG 20010904//EN"
 "http://www.w3.org/TR/2001/REC-SVG-20010904/DTD/svg10.dtd">
<svg version="1.0" xmlns="http://www.w3.org/2000/svg"
 width="222.000000pt" height="350.000000pt" viewBox="0 0 222.000000 350.000000"
 preserveAspectRatio="xMidYMid meet">

<g transform="translate(0.000000,350.000000) scale(0.100000,-0.100000)"
fill="#000000" stroke="none">
<path d="M0 1750 l0 -1750 360 0 360 0 0 540 0 540 134 0 134 0 25 -63 c13
-34 109 -277 212 -539 l188 -478 403 0 c380 0 403 1 397 17 -4 10 -121 299
-260 643 l-252 624 78 81 c197 201 306 470 329 807 37 535 -152 1007 -493
1233 -157 104 -76 95 -896 95 l-719 0 0 -1750z m1165 909 c62 -21 148 -112
175 -184 28 -76 38 -220 20 -296 -28 -118 -82 -193 -172 -238 l-61 -31 -204 0
-203 0 0 378 c0 208 3 382 8 386 13 13 393 0 437 -15z"/>
</g>
</svg>
